<mxfile host="65bd71144e">
    <diagram id="ZLlUgijP4z0tVihicqYV" name="Page-1">
        <mxGraphModel dx="1760" dy="1418" grid="1" gridSize="10" guides="1" tooltips="1" connect="1" arrows="1" fold="1" page="1" pageScale="1" pageWidth="1654" pageHeight="1169" math="0" shadow="0">
            <root>
                <mxCell id="0"/>
                <mxCell id="1" parent="0"/>
                <mxCell id="2" value="PricingService" style="swimlane;" parent="1" vertex="1">
                    <mxGeometry x="640" y="330" width="520" height="390" as="geometry"/>
                </mxCell>
                <mxCell id="3" value="&lt;div style=&quot;text-align: left ; font-size: 39px&quot;&gt;&lt;font style=&quot;font-size: 39px&quot;&gt;GetEigibleService&lt;/font&gt;&lt;/div&gt;&lt;div style=&quot;text-align: left ; font-size: 39px&quot;&gt;&lt;font style=&quot;font-size: 39px&quot;&gt;&lt;br&gt;&lt;/font&gt;&lt;/div&gt;&lt;div style=&quot;text-align: left ; font-size: 39px&quot;&gt;&lt;span&gt;&lt;font style=&quot;font-size: 39px&quot;&gt;GetPriceFrom&quot;ServiceName&quot;&lt;/font&gt;&lt;/span&gt;&lt;/div&gt;&lt;div style=&quot;text-align: left ; font-size: 39px&quot;&gt;&lt;span&gt;&lt;font style=&quot;font-size: 39px&quot;&gt;&lt;br&gt;&lt;/font&gt;&lt;/span&gt;&lt;/div&gt;&lt;div style=&quot;text-align: left ; font-size: 39px&quot;&gt;&lt;font style=&quot;font-size: 39px&quot;&gt;PriceManipulation&lt;/font&gt;&lt;/div&gt;" style="text;html=1;align=center;verticalAlign=middle;resizable=0;points=[];autosize=1;strokeColor=none;fillColor=none;fontSize=36;" parent="2" vertex="1">
                    <mxGeometry y="75" width="520" height="220" as="geometry"/>
                </mxCell>
                <mxCell id="7" style="edgeStyle=none;html=1;exitX=0;exitY=0.5;exitDx=0;exitDy=0;fontSize=39;fontColor=#FFFFFF;" parent="1" source="5" target="3" edge="1">
                    <mxGeometry relative="1" as="geometry"/>
                </mxCell>
                <mxCell id="5" value="متد استعلام قیمت&amp;nbsp;" style="rounded=1;whiteSpace=wrap;html=1;fontSize=39;fontColor=none;" parent="1" vertex="1">
                    <mxGeometry x="1240" y="430" width="300" height="170" as="geometry"/>
                </mxCell>
                <mxCell id="8" style="edgeStyle=orthogonalEdgeStyle;html=1;exitX=1;exitY=0.5;exitDx=0;exitDy=0;entryX=-0.006;entryY=0.924;entryDx=0;entryDy=0;entryPerimeter=0;fontSize=39;fontColor=#F6F5FF;" parent="1" source="6" target="3" edge="1">
                    <mxGeometry relative="1" as="geometry"/>
                </mxCell>
                <mxCell id="6" value="این متد جهت دستکاری قیمت اولیه به کار می رود&amp;nbsp;" style="rounded=1;whiteSpace=wrap;html=1;fontSize=39;fontColor=none;" parent="1" vertex="1">
                    <mxGeometry x="130" y="610" width="360" height="170" as="geometry"/>
                </mxCell>
                <mxCell id="10" style="edgeStyle=none;html=1;exitX=1;exitY=0.5;exitDx=0;exitDy=0;entryX=0.01;entryY=0.005;entryDx=0;entryDy=0;entryPerimeter=0;" parent="1" source="9" target="3" edge="1">
                    <mxGeometry relative="1" as="geometry"/>
                </mxCell>
                <mxCell id="9" value="دریافت لیست سرویس ها با توجه به ورودی های کاربر" style="rounded=1;whiteSpace=wrap;html=1;fontSize=39;fontColor=none;" parent="1" vertex="1">
                    <mxGeometry x="120" y="240" width="360" height="170" as="geometry"/>
                </mxCell>
            </root>
        </mxGraphModel>
    </diagram>
</mxfile>